<?xml version="1.0" standalone="no"?>
<!DOCTYPE svg PUBLIC "-//W3C//DTD SVG 20010904//EN"
 "http://www.w3.org/TR/2001/REC-SVG-20010904/DTD/svg10.dtd">
<svg version="1.0" xmlns="http://www.w3.org/2000/svg"
 width="962.000000pt" height="962.000000pt" viewBox="0 0 962.000000 962.000000"
 preserveAspectRatio="xMidYMid meet">
<metadata>
Created by potrace 1.14, written by Peter Selinger 2001-2017
</metadata>
<g transform="translate(0.000000,962.000000) scale(0.100000,-0.100000)"
fill="#000000" stroke="none">
<path d="M4570 9234 c-662 -48 -1201 -256 -1655 -637 -492 -414 -830 -994
-950 -1627 -63 -332 -59 -735 10 -1086 53 -274 131 -496 280 -799 127 -259
248 -461 511 -853 227 -338 305 -465 395 -644 105 -209 171 -399 204 -583 23
-128 36 -165 68 -189 l28 -21 1275 -3 c1392 -2 1326 -5 1357 55 8 15 23 66 32
113 56 277 175 575 338 845 33 55 152 241 264 412 349 538 435 681 549 918
212 442 307 842 307 1300 0 791 -285 1479 -830 2005 -454 439 -984 696 -1598
776 -116 15 -474 26 -585 18z m620 -527 c485 -85 913 -314 1265 -678 275 -285
452 -598 550 -974 161 -618 88 -1168 -242 -1818 -92 -181 -198 -354 -449 -732
-314 -472 -441 -704 -554 -1010 -37 -101 -59 -148 -81 -167 l-29 -28 -899 0
c-885 0 -899 0 -924 20 -19 15 -37 54 -68 148 -95 287 -185 451 -524 962 -446
672 -572 901 -683 1240 -95 286 -126 482 -126 780 0 232 13 352 61 555 205
871 924 1546 1805 1694 197 34 289 40 528 36 185 -2 250 -7 370 -28z"/>
<path d="M4053 8251 c-72 -24 -126 -62 -172 -121 -55 -70 -80 -144 -91 -269
-12 -130 -17 -137 -128 -145 -289 -23 -463 -124 -556 -320 -48 -100 -58 -162
-54 -333 l3 -148 -30 -48 c-85 -136 -118 -199 -142 -272 -23 -71 -26 -95 -26
-215 0 -207 47 -353 148 -457 59 -61 78 -65 171 -32 49 17 78 20 169 17 99 -3
115 -6 163 -32 83 -46 84 -50 1 -92 -256 -128 -352 -422 -222 -679 38 -73 133
-167 206 -203 87 -43 167 -55 307 -47 142 9 144 8 183 -123 38 -126 75 -178
161 -222 62 -31 77 -35 145 -34 125 1 212 59 268 179 l28 60 3 988 c1 543 -1
1002 -6 1020 l-8 32 -155 6 c-189 7 -241 24 -327 105 -52 49 -55 53 -32 54 45
1 214 65 270 102 116 78 192 182 231 321 22 77 24 99 24 342 0 244 -1 264 -23
325 -41 120 -133 212 -245 245 -69 21 -199 19 -264 -4z"/>
<path d="M5230 8249 c-91 -18 -186 -103 -210 -187 -27 -98 -7 -192 61 -287 54
-75 50 -176 -8 -245 -14 -17 -49 -46 -79 -66 -73 -49 -104 -102 -104 -180 0
-78 30 -138 88 -179 42 -29 49 -30 155 -32 129 -2 189 -19 284 -83 56 -37 92
-77 134 -148 26 -45 75 -72 129 -72 117 0 179 97 133 211 -19 49 -72 78 -143
79 -25 1 -65 9 -89 19 -45 18 -205 131 -197 139 3 2 38 10 78 17 40 8 107 21
148 30 116 26 198 6 264 -64 17 -18 45 -34 65 -37 43 -8 77 -29 86 -52 4 -9
24 -64 45 -122 21 -58 50 -136 64 -175 43 -116 33 -183 -38 -258 -20 -21 -36
-44 -36 -51 0 -23 -47 -57 -81 -59 -56 -2 -511 13 -556 19 -34 4 -54 16 -95
55 -61 58 -89 75 -140 84 -55 10 -140 -18 -187 -63 -75 -72 -82 -202 -14 -283
29 -35 114 -79 151 -79 29 0 62 -17 62 -32 0 -6 29 -54 64 -107 35 -53 72
-112 82 -131 19 -38 22 -105 9 -188 -7 -46 -5 -59 14 -93 36 -64 30 -112 -37
-299 -33 -91 -67 -189 -77 -218 -24 -76 -65 -118 -133 -139 -175 -55 -215
-274 -72 -396 138 -118 370 -30 370 140 0 43 24 95 61 133 33 32 305 225 358
254 30 16 48 18 119 12 111 -8 156 4 208 59 101 105 73 274 -57 339 -63 31
-126 34 -184 7 -71 -33 -125 -111 -125 -180 0 -61 -15 -77 -219 -220 -111 -77
-201 -138 -201 -134 0 10 139 404 157 446 18 41 57 76 110 96 84 33 123 142
92 256 -16 57 -67 101 -132 115 -32 6 -66 22 -85 38 -36 31 -170 258 -179 302
-11 58 -3 60 236 60 268 -1 400 -12 443 -37 18 -10 50 -45 73 -78 43 -64 113
-118 173 -135 63 -17 166 -12 229 12 80 29 162 112 192 193 32 84 27 198 -13
278 -32 66 -103 133 -155 146 -20 6 -57 15 -82 21 -52 13 -112 58 -133 99 -8
15 -27 65 -42 111 -14 47 -40 118 -55 158 -36 91 -36 118 1 195 72 150 38 276
-92 341 -65 33 -150 35 -206 7 -36 -18 -87 -69 -142 -141 l-25 -32 -205 -25
c-113 -13 -219 -21 -237 -18 -42 8 -63 39 -63 93 0 89 56 165 160 217 77 39
141 104 158 163 34 112 4 239 -74 314 -64 61 -159 86 -254 67z"/>
<path d="M3486 2520 c-109 -43 -162 -130 -154 -251 7 -93 39 -141 123 -184
l59 -30 1225 -3 c1371 -3 1297 -6 1370 67 61 61 86 162 61 252 -13 47 -72 114
-124 142 l-41 22 -1235 2 c-1200 2 -1236 2 -1284 -17z"/>
<path d="M3555 1793 c-123 -11 -183 -40 -230 -112 -89 -133 -26 -314 126 -367
52 -18 105 -19 1269 -19 l1215 0 50 23 c103 47 149 118 149 227 0 101 -44 175
-130 218 -67 34 -185 37 -1304 35 -608 -1 -1123 -3 -1145 -5z"/>
<path d="M4132 1025 c-102 -32 -162 -118 -162 -235 1 -108 44 -176 145 -222
l50 -23 564 -3 c387 -2 581 1 618 8 109 23 192 123 193 231 0 106 -48 191
-132 233 l-52 26 -590 -1 c-464 0 -600 -3 -634 -14z"/>
</g>
</svg>
